<?xml version="1.0" encoding="iso-8859-1"?>
<!-- Generator: Adobe Illustrator 19.0.0, SVG Export Plug-In . SVG Version: 6.00 Build 0)  -->
<svg version="1.1" id="Layer_1" xmlns="http://www.w3.org/2000/svg" xmlns:xlink="http://www.w3.org/1999/xlink" x="0px" y="0px"
	 viewBox="0 0 299.215 299.215" style="enable-background: new 0 0 299.215 299.215" xml:space="preserve">
<g id="XMLID_106_">
	<path transform="matrix(0.9,0,0,0.8,21.1,26.6)" id="XMLID_107_" d="M 16.9 25.5 c -2.8 0 -4.8 2.2 -4.6 5 l 23.2 260 c 0.2 2.7 2.6 5.6 5.3 6.3 l 98.4 27.3 c 2.7 0.7 7 0.7 9.6 0 l 98.7 -27.4 c 2.7 -0.7 5 -3.6 5.3 -6.3 L 276 30.5 c 0.2 -2.7 -1.8 -5 -4.6 -5 H 16.9 z M 226.6 85.2 c -0.2 2.4 -0.6 6.7 -0.8 9.4 l -0.6 6.8 c -0.2 2.7 -0.6 6.7 -0.8 8.7 c -0.2 2 -0.4 3.7 -0.4 3.7 c 0 0 -2.3 0 -5.1 0 h -69.8 c -2.8 0 -5 0 -5.1 0 s -2.3 0 -5.1 0 h -36.7 c -2.8 0 -4.8 2.2 -4.6 5 l 2.1 24 c 0.2 2.7 2.7 5 5.4 5 H 139.1 c 2.8 0 5 0 5.1 0 s 2.3 0 5.1 0 h 57.9 c 2.8 0 7 0 9.5 0 c 2.4 0 4.3 2 4.1 4.4 c -0.2 2.4 -0.6 6.7 -0.8 9.4 l -6.9 77.2 c -0.2 2.7 -0.6 6.2 -0.7 7.8 c -0.1 1.5 -2.4 3.4 -5.1 4.1 l -58.1 16.1 c -2.7 0.7 -4.9 1.3 -4.9 1.4 c 0 0 -2.2 -0.6 -4.9 -1.3 l -58.2 -16.1 c -2.7 -0.7 -5 -3.6 -5.3 -6.3 l -3.7 -42 c -0.2 -2.7 1.8 -5 4.6 -5 h 5.3 c 2.8 0 7.3 0 10 0 h 7.9 c 2.8 0 5.2 2.2 5.4 5 l 1.5 16.5 c 0.2 2.7 2.6 5.6 5.3 6.3 l 27.2 7.4 c 2.7 0.7 4.8 1.3 4.8 1.3 s 2.2 -0.6 4.8 -1.3 l 27.3 -7.4 c 2.7 -0.7 5 -3.5 5.3 -6.3 l 3 -33 c 0.2 -2.7 -1.8 -5 -4.6 -5 h -30.7 c -2.8 0 -5 0 -5.1 0 s -2.3 0 -5.1 0 H 75.1 c -2.8 0 -5.2 -2.2 -5.4 -5 l -7.3 -81.3 c -0.2 -2.7 -0.6 -7 -0.8 -9.4 c -0.2 -2.4 1.9 -4.4 4.6 -4.4 H 139.1 c 2.8 0 5 0 5.1 0 s 2.3 0 5.1 0 h 72.8 C 224.8 80.7 226.8 82.7 226.6 85.2 z"/>
</g>
<g>
</g>
<g>
</g>
<g>
</g>
<g>
</g>
<g>
</g>
<g>
</g>
<g>
</g>
<g>
</g>
<g>
</g>
<g>
</g>
<g>
</g>
<g>
</g>
<g>
</g>
<g>
</g>
<g>
</g>
    <rect x="158" y="32" width="0" height="0" fill="rgb(255, 255, 255)"/>
</svg>
